<?xml version="1.0" standalone="no"?>
<!DOCTYPE svg PUBLIC "-//W3C//DTD SVG 1.1//EN" "http://www.w3.org/Graphics/SVG/1.1/DTD/svg11.dtd" >
<!--
2013-9-30: Created.
-->
<svg>
<metadata>
Created by iconfont
</metadata>
<defs>

<font id="iconfont" horiz-adv-x="1024" >
  <font-face
    font-family="iconfont"
    font-weight="500"
    font-stretch="normal"
    units-per-em="1024"
    ascent="896"
    descent="-128"
  />
    <missing-glyph />
    
    <glyph glyph-name="jifen" unicode="&#58913;" d="M444.767093 531.495881c237.920646 0 430.759861 81.045067 430.759861 181.111432 0 100.068171-192.839215 181.111432-430.759861 181.111432-237.922453 0-430.759861-81.305163-430.759861-181.111432C14.007232 612.540949 206.84464 531.495881 444.767093 531.495881zM444.767093 214.094354c31.271078 0 61.499966 1.56238 90.946762 4.170561V341.264848c0 0.782093-0.261902 1.824282-0.261901 2.606374h0.261901v14.592447c0 57.851403 111.534052 104.758923 249.128238 104.758923 32.053171 0 62.543961-2.606375 90.684861-7.297127v160.525949C799.436347 539.313199 635.52193 485.892452 444.767093 485.892452c-190.753031 0-354.667447 53.420747-430.759861 130.557156v-221.243822c0-100.066364 192.837408-181.111432 430.759861-181.111432zM535.713855-21.22353V171.877586v0.7839c-29.446796-2.606375-59.93578-4.170561-90.946762-4.170561-190.753031 0-354.667447 53.420747-430.759861 130.557155v-243.655393c0-100.066364 192.839215-181.111432 430.759861-181.111432 70.101184 0 136.290096 7.297127 194.923592 19.545101-62.804057 19.021297-103.97683 50.030473-103.97683 84.950114zM559.687806 123.407687v-129.776868c0-53.420747 100.848457-96.677897 225.152481-96.677897s225.152481 43.25715 225.152481 96.677897v129.776868c-39.870488-40.912677-125.606308-69.317284-225.152481-69.317284s-185.280186 28.402801-225.152481 69.317284zM559.687806 292.53124v-120.393558c3.386661-52.118463 102.932835-93.813233 225.152481-93.813233s221.505724 41.69477 225.152481 93.813233v120.393558c-39.870488-40.912677-125.606308-69.317284-225.152481-69.317284s-185.280186 28.404607-225.152481 69.317284zM784.842093 440.549119c-124.304023 0-225.152481-43.258956-225.152481-96.679703v-2.86647c3.386661-52.118463 102.932835-93.813233 225.152481-93.813233s221.505724 41.69477 225.152481 93.813233v2.604568 0.261902c0 53.420747-100.848457 96.679703-225.152481 96.679703z"  horiz-adv-x="1024" />

    
    <glyph glyph-name="yingxiao" unicode="&#58904;" d="M853.333333 840.533333H170.666667C106.666667 840.533333 55.466667 789.333333 55.466667 725.333333v-554.666666c0-64 51.2-115.2 115.2-115.2h682.666666c64 0 115.2 51.2 115.2 115.2V725.333333c0 64-51.2 115.2-115.2 115.2zM908.8 170.666667c0-29.866667-25.6-55.466667-55.466667-55.466667H170.666667c-29.866667 0-55.466667 25.6-55.466667 55.466667V725.333333c0 29.866667 25.6 55.466667 55.466667 55.466667h682.666666c29.866667 0 55.466667-25.6 55.466667-55.466667v-554.666666zM853.333333 8.533333H170.666667c-17.066667 0-29.866667-12.8-29.866667-29.866666s12.8-29.866667 29.866667-29.866667h682.666666c17.066667 0 29.866667 12.8 29.866667 29.866667s-12.8 29.866667-29.866667 29.866666zM746.666667 533.333333L597.333333 384 409.6 554.666667l-174.933333-192c-12.8-12.8-8.533333-29.866667 0-42.666667 12.8-12.8 29.866667-8.533333 42.666666 0L413.866667 469.333333l183.466666-170.666666 192 192c12.8 12.8 12.8 29.866667 0 42.666666s-29.866667 12.8-42.666666 0z"  horiz-adv-x="1024" />

    
    <glyph glyph-name="icon" unicode="&#58942;" d="M756.61316 196.525188 756.61316 633.520937 425.855014 633.520937l0-210.656791c0-74.723865-3.738138-130.74374-11.174504-168.075996-7.473205-37.358863-23.115464-73.182766-46.931892-107.563808 10.407024-4.488221 20.11513-10.437723 29.051663-17.930371 35.757388 58.267055 54.371328 118.772081 55.872518 181.518147l122.919541 0 0-154.623613 29.051663 0L604.644003 310.812117 725.323527 310.812117l0-114.286929c1.467421-22.412452-11.174504-32.847106-37.992289-31.376615-16.413831 0-32.789801 0.77055-49.166793 2.24411 2.967588-11.941983 5.202489-22.412452 6.702656-31.379685 14.875802 0 31.289634 0 49.166793 0C737.231741 136.012999 758.080581 156.188504 756.61316 196.525188zM575.591317 339.946668 454.905654 339.946668c0 7.459902 0 18.664082 0 33.613562 1.467421 19.400862 2.233877 35.088146 2.233877 47.062875l0 38.098713 118.450762 0L575.590294 339.946668zM575.591317 485.613282 457.140555 485.613282 457.140555 606.626403l118.450762 0L575.591317 485.613282zM725.323527 339.946668 604.64298 339.946668l0 118.77515L725.323527 458.721819 725.323527 339.946668zM725.323527 485.613282 604.64298 485.613282 604.64298 606.626403 725.323527 606.626403 725.323527 485.613282zM511.819898-119.829923c-68.039629 0-134.050042 13.368472-196.196451 39.73498-60.018955 25.464975-113.918539 61.915142-160.202679 108.34152C109.140723 74.670909 72.803119 128.732176 47.418986 188.930209 21.138436 251.257743 7.81192 317.459514 7.81192 385.696642c0 68.238151 13.325493 134.439922 39.607066 196.769502 25.384134 60.199057 61.720713 114.26237 108.001783 160.686702 46.283116 46.427402 100.183723 82.879616 160.202679 108.343567C377.769856 877.863944 443.780269 891.23344 511.819898 891.23344S645.86994 877.863944 708.016349 851.496413c60.018955-25.464975 113.918539-61.916165 160.202679-108.343567 46.282093-46.424332 82.618673-100.487645 108.002806-160.686702 26.281573-62.328557 39.607066-128.531352 39.607066-196.769502 0-68.237127-13.325493-134.438898-39.607066-196.766432C950.8377 128.732176 914.500097 74.670909 868.218004 28.2476c-46.283116-46.426379-100.1827-82.876546-160.202679-108.34152C645.86994-106.460428 579.859527-119.829923 511.819898-119.829923zM511.819898 870.767316C245.194398 870.767316 28.278043 653.165346 28.278043 385.696642c0-267.462564 216.916355-485.060441 483.541855-485.060441 266.626523 0 483.541855 217.597877 483.541855 485.060441C995.361753 653.165346 778.446421 870.767316 511.819898 870.767316zM343.16471 129.293971l-29.054733 0L314.109977 469.923952c-19.377326-38.866193-38.758746-71.709205-58.103326-98.603739-4.471848 11.945053-9.711176 22.412452-15.646352 31.376615 52.134381 79.169107 90.862427 166.568666 116.212792 262.200724l31.289634-6.729262c-13.412474-43.348274-28.321022-84.417645-44.698015-123.254162L343.16471 129.293971z"  horiz-adv-x="1024" />

    
    <glyph glyph-name="activity" unicode="&#58914;" d="M139.776-96c-5.888 0-10.688 4.8-10.688 10.688l-0 938.624c0 5.888 4.8 10.688 10.688 10.688 4.352 0 8.256-2.688 9.92-6.784l14.464-36.16 35.648 15.424c29.696 12.8 72.896 27.52 144.192 27.52 94.72 0 145.024-26.432 189.376-49.728 48.32-25.408 89.984-47.36 179.456-47.36 81.536 0 123.648 18.368 166.528 40.576 1.344 0.704 3.072 1.088 4.864 1.088 1.984 0 4.096-0.512 5.568-1.472 3.2-1.92 5.184-5.44 5.184-9.152v-453.12c0-4.032-2.176-7.744-5.76-9.536-42.048-21.696-90.304-42.944-176.32-42.944-94.848 0-145.088 26.496-189.44 49.792-48.32 25.408-89.984 47.36-179.456 47.36-82.688 0-125.696-19.072-173.248-44.032l-20.288-10.624v-420.16c0-5.888-4.8-10.688-10.688-10.688zM344 410.88c94.72 0 145.024-26.432 189.376-49.728 48.192-25.408 89.856-47.36 179.456-47.36 68.416 0 108.288 13.568 138.176 26.816l22.528 9.984v425.6l-49.152-15.36c-32.96-10.304-69.376-15.296-111.552-15.296-94.848 0-145.152 26.496-189.504 49.856-48.256 25.344-89.92 47.232-179.328 47.232-82.688 0-125.632-19.072-173.248-43.968l-20.288-10.624v-425.344l52.544 22.144c42.816 17.984 86.272 26.048 140.992 26.048z"  horiz-adv-x="1024" />

    
    <glyph glyph-name="jian" unicode="&#58881;" d="M512.5 862.502c-263.986 0-477.992-214.006-477.992-477.992S248.514-93.5 512.5-93.5c263.968 0 477.992 214.024 477.992 478.01S776.468 862.502 512.5 862.502z m0-887.716c-226.276 0-409.708 183.45-409.708 409.724S286.224 794.216 512.5 794.216c226.258 0 409.708-183.432 409.708-409.708S738.758-25.214 512.5-25.214z m-45.728 510.348v-48.062h101.376v48.062h-101.376z m-142.238-87.406c-22.89-80.854-48.33-155.874-76.288-225.056l52.848-23.508c27.256 72.852 51.596 149.14 73.036 228.91l-49.596 19.654z m43.044 99.978c-15.988 34.958-39.41 76.654-70.286 125.1l-47.412-29.508c31.242-47.712 55.214-90.124 71.936-127.284l45.762 31.692z m335.172-300.996c-9.102 1.8-18.906 17.672-29.442 47.512l-6.536 24.04c28.676 53.182 51.414 118.182 68.118 195.036l-47.946 20.756c-8.734-48.448-20.738-92.14-35.976-131.102-2.566 15.638-4.566 30.042-6 43.144-4.368 41.512-7.636 81.938-9.804 121.282h105.73v52.432h-24.008c-8.336 20.772-17.07 39.142-26.14 55.18l-45.246-7.65c9.836-14.572 19.074-30.408 27.808-47.53h-40.344c-0.734 16.02-1.066 39.51-1.066 70.466h-52.314c0-31.674 0.334-55.164 1.068-70.466h-185.266v-201.02c-1.466-83.054-19.272-148.238-53.414-195.586l42.512-37.676c38.86 57.916 59.398 135.668 61.582 233.262v148.588h136.786c3.268-57.914 9.602-112.728 19.07-164.426 4.37-25.138 9.27-48.08 14.706-68.852-27.608-43.678-60.682-76.818-99.176-99.426l33.792-44.244c31.242 19.304 59.216 45.544 83.922 78.688 5.438-14.57 10.538-25.674 15.238-33.344 16.372-30.208 34.91-45.344 55.616-45.344 32.674 0.732 49.044 41.91 49.044 123.464L708.718 285.2c-1.066-58.65-3.068-88.122-5.968-88.49z m-128.066 211.956h-107.912v-173.178h107.912v173.178z m-40.344-131.668h-27.242v90.158h27.242v-90.158z"  horiz-adv-x="1024" />

    
    <glyph glyph-name="tongji" unicode="&#58978;" d="M273.5104 330.17344l200.704 209.97632 194.00704-202.98752c1.4848-2.31424 2.46272-4.93568 4.4544-6.9888 15.90784-16.65536 41.65632-16.65536 57.51808 0l222.86848 233.16992c2.5088 1.68448 4.82304 3.62496 6.92224 5.80608 16.256 17.00864 16.256 44.5952 0 61.61408-16.27136 17.01888-42.64448 17.01888-58.9056 0-1.19296-1.28512-1.72544-2.94912-2.76992-4.34176l-195.73248-204.8256-198.0928 207.27808c-0.50176 0.57856-0.67584 1.3312-1.19296 1.88928-16.26112 17.01376-42.63424 17.01376-58.91072 0-1.21344-1.29024-1.70496-2.95424-2.72896-4.34688L215.99744 390.30784c-15.88736-16.6144-15.88736-43.56608 0-60.1344 15.88224-16.66048 41.64608-16.66048 57.51296 0z m704.8448-273.32096H88.70912V751.8976c0 20.20864-15.91808 36.5824-35.584 36.5824s-35.58912-16.37376-35.58912-36.5824v-731.63776c0-20.20864 15.9232-36.57216 35.58912-36.57216h925.2352c19.64032 0 35.58912 16.3584 35.58912 36.57216 0.00512 20.1984-15.93856 36.59264-35.59424 36.59264z m0 0"  horiz-adv-x="1024" />

    
    <glyph glyph-name="songli" unicode="&#58916;" d="M867.84 603.685926h-41.623704c12.041481 10.24 22.281481 21.997037 29.866667 35.65037 27.685926 49.493333 29.297778 100.124444 4.266667 142.696297-24.746667 42.287407-73.102222 69.594074-123.164445 69.594074-111.597037 0-181.76-94.340741-220.16-170.097778-38.305185 75.757037-108.468148 170.097778-220.065185 170.097778-50.062222 0-98.417778-27.306667-123.164444-69.594074-24.936296-42.571852-23.419259-93.202963 4.266666-142.696297 7.585185-13.558519 17.825185-25.315556 29.866667-35.65037h-51.105185c-48.64 0-88.177778-39.537778-88.177778-88.177778v-132.740741c0-21.238519 17.256296-38.494815 38.4-38.494814H131.792593v-354.607408c0-41.054815 33.374815-74.42963 74.334814-74.429629h617.718519c41.054815 0 74.334815 33.374815 74.334815 74.429629v354.607408h19.342222c21.238519 0 38.494815 17.256296 38.494815 38.494814v132.740741c0 48.64-39.537778 88.177778-88.177778 88.177778z m0-62.198519c14.317037 0 25.979259-11.662222 25.979259-25.979259v-109.037037H546.038519V541.487407h34.986666c4.551111-0.094815 9.102222-0.18963 13.748148-0.189629 3.982222 0 8.059259 0.094815 12.231111 0.189629h260.835556zM737.28 789.428148c27.97037 0 55.940741-15.644444 69.594074-38.874074 13.558519-23.04 11.851852-51.01037-4.93037-80.877037-27.496296-49.019259-123.354074-64.568889-197.783704-65.991111h-24.557037c-10.24 0.18963-19.816296 0.758519-28.34963 1.422222 23.324444 60.871111 83.342222 184.32 186.026667 184.32zM232.296296 669.677037c-16.687407 29.866667-18.394074 57.837037-4.93037 80.877037 13.653333 23.22963 41.623704 38.874074 69.594074 38.874074 102.305185 0 162.512593-123.354074 186.026667-184.32-8.533333-0.663704-18.10963-1.232593-28.444445-1.422222h-24.177778c-74.524444 1.422222-170.571852 16.971852-198.068148 65.991111zM130.74963 515.508148c0 14.317037 11.662222 25.979259 25.979259 25.979259H427.614815c3.982222-0.094815 7.964444-0.18963 11.757037-0.189629 4.551111 0 8.912593 0.094815 13.274074 0.189629h31.194074v-135.016296H130.74963v109.037037z m63.241481-525.748148v354.607407h289.943704v-366.838518h-277.807408c-6.731852 0-12.136296 5.499259-12.136296 12.231111z m642.085926 0c0-6.731852-5.499259-12.231111-12.231111-12.231111h-277.807407V344.367407h290.038518v-354.607407z"  horiz-adv-x="1024" />

    
    <glyph glyph-name="jiameng" unicode="&#58983;" d="M575.488-44.032c-16.384 0-32.768 6.656-45.056 19.456l-14.336 15.872c-5.632 6.144-5.12 15.36 1.024 20.48 6.144 5.632 15.36 5.12 20.48-1.024l14.336-15.872c11.776-12.8 30.72-14.336 42.496-3.584 11.264 10.752 10.752 29.696-0.512 41.984l-17.408 16.384c-5.632 5.632-6.144 14.848-0.512 20.48 5.632 5.632 14.848 6.144 20.48 0.512l17.92-16.896 0.512-0.512c23.04-24.576 22.528-61.952-0.512-83.456-11.264-9.216-24.576-13.824-38.912-13.824z m-342.528 317.44c-4.096 0-8.192 1.536-10.752 4.608L64.512 450.56l-1.024 1.024C44.032 477.696 21.504 520.704 26.112 578.56c4.608 54.272 32.768 107.008 83.456 157.696C170.496 797.184 233.984 809.472 276.48 808.96c54.272-0.512 97.28-20.992 119.808-39.936l1.024-1.024 128.512-131.584c5.632-5.632 5.632-14.848 0-20.48s-14.848-5.632-20.48 0L376.832 747.52c-17.92 14.848-54.784 32.256-100.864 32.256-36.864 0.512-92.16-10.752-146.432-64.512-120.832-120.832-64-218.112-43.008-245.76l156.672-172.032c5.632-6.144 5.12-15.36-1.024-20.48-2.048-2.048-5.632-3.584-9.216-3.584z m568.832-94.72c-20.992 0-41.984 8.704-57.856 25.6l-105.472 103.936c-5.632 5.632-5.632 14.848 0 20.48s14.848 5.632 20.48 0l105.984-103.936 0.512-0.512c17.92-19.456 47.104-22.016 65.024-5.632 17.92 16.384 17.408 45.568-0.512 65.024l-191.488 196.096c-5.632 5.632-5.632 14.848 0 20.48s14.848 5.632 20.48 0l192-196.096 0.512-0.512c29.184-31.232 28.672-78.848-1.024-106.496-13.824-12.288-31.232-18.432-48.64-18.432z m19.456 120.32c-3.584 0-7.168 1.536-9.728 3.584-6.144 5.632-6.144 14.848-1.024 20.48l129.024 141.312 0.512 0.512c11.264 11.776 28.672 45.568 29.696 89.6 0.512 37.888-11.264 95.744-71.168 155.648-45.056 45.056-94.208 68.096-146.944 68.096h-1.536c-49.152-0.512-87.04-21.504-100.352-35.84L389.632 472.064c-4.608-4.608-8.704-9.216-12.8-13.312-6.656-6.656-16.384-16.384-17.92-20.992l1.024-1.024 2.56-2.56c0.512-1.024 11.776-15.872 40.96-33.792 13.312-8.192 34.816-12.8 57.856-11.776 23.04 1.024 44.544 7.168 58.88 16.896 33.28 23.552 119.296 94.72 119.808 95.232 6.144 5.12 15.36 4.096 20.48-2.048 5.12-6.144 4.096-15.36-2.048-20.48-3.584-3.072-87.552-72.192-121.856-96.768-38.4-27.136-109.568-30.208-148.48-6.144-30.72 18.944-44.544 35.328-48.64 40.448-6.144 5.632-9.216 12.8-9.728 19.968-0.512 15.36 11.264 27.136 26.624 42.496 4.096 4.096 8.192 8.192 12.288 12.8l260.096 270.336c20.48 20.992 67.072 44.032 121.344 44.544 41.984 0.512 105.472-12.8 168.96-76.288 67.072-67.072 80.384-133.12 79.36-176.64-1.024-49.152-19.456-90.112-37.376-109.056l-129.024-141.312c-2.56-2.048-6.656-3.584-10.752-3.584z m-351.744-334.336c-15.872 0-31.232 6.144-42.496 17.92-10.752 11.264-17.408 25.6-17.408 41.472 0 15.872 5.632 30.208 16.384 40.96l95.232 93.696c10.752 10.24 24.576 15.872 39.424 15.872 15.872 0 31.232-6.144 42.496-17.92 23.04-23.04 23.04-59.904 1.024-82.432l-95.232-93.696c-10.752-10.24-24.576-15.872-39.424-15.872z m91.136 185.856c-8.704 0-16.384-3.072-22.528-9.216l-95.232-93.696c-6.144-6.144-9.728-14.336-9.216-23.552 0-9.216 3.584-17.92 10.24-24.576 6.656-7.168 15.872-10.752 25.6-10.752 8.704 0 16.384 3.072 22.528 9.216l95.232 93.696c12.8 12.8 12.288 34.304-1.024 48.128-7.168 7.168-15.872 10.752-25.6 10.752zM399.36 31.232c-16.384 0-31.744 6.656-43.52 18.432-23.04 23.552-23.552 60.928-1.024 83.456l97.28 95.744c10.752 10.752 25.088 16.384 40.448 16.384 16.384 0 31.744-6.656 43.52-18.432 23.04-23.552 23.552-60.928 1.024-83.456l-97.28-95.744c-11.264-10.752-25.6-16.384-40.448-16.384z m93.184 189.952c-8.704 0-16.896-3.584-23.04-9.216l-97.28-95.744c-13.312-13.312-12.8-35.328 1.024-49.152 7.168-7.168 16.384-11.264 26.112-11.264 8.704 0 16.896 3.072 23.04 9.216l97.28 95.744c13.312 13.312 12.8 35.328-1.024 49.152-7.168 7.68-16.384 11.264-26.112 11.264z m-168.448-124.416c-16.896 0-32.256 6.656-44.544 18.944-23.552 24.064-24.064 62.464-1.024 85.504L378.88 299.52c10.752 10.752 25.6 16.896 40.96 16.896 16.896 0 32.256-6.656 44.544-18.944 23.552-24.064 24.064-62.464 1.024-85.504l-99.84-98.304c-11.776-10.752-26.112-16.896-41.472-16.896zM419.84 291.84c-9.216 0-17.92-3.584-24.064-9.728l-99.84-98.304c-13.824-13.824-13.312-36.352 1.024-51.2 7.168-7.68 16.896-11.776 27.136-11.776 9.216 0 17.92 3.584 24.064 9.728l99.84 98.304c13.824 13.824 13.312 36.352-1.024 51.2-7.68 7.68-16.896 11.776-27.136 11.776z m-169.472-123.392c-16.896 0-32.256 6.656-44.544 18.944-11.264 11.776-17.92 26.624-17.92 43.008s6.144 31.232 17.408 42.496l99.84 98.304c10.752 10.752 25.6 16.896 40.96 16.896 16.896 0 32.256-6.656 44.544-18.944 11.264-11.776 17.92-26.624 17.92-43.008s-6.144-31.232-17.408-42.496l-99.84-98.304c-10.752-10.752-25.6-16.896-40.96-16.896zM346.112 363.52c-9.216 0-17.92-3.584-24.064-9.728l-99.84-98.304c-6.656-6.656-10.24-15.36-10.24-25.088 0-9.728 4.096-18.944 11.264-26.112 7.168-7.68 16.896-11.776 27.136-11.776 9.216 0 17.92 3.584 24.064 9.728l99.84 98.304c6.656 6.656 10.24 15.36 10.24 25.088 0 9.728-4.096 18.944-11.264 26.112-7.168 7.68-16.896 11.776-27.136 11.776z m295.936-341.504c-19.968 0-39.936 8.192-55.296 24.064l-12.288 11.776c-5.632 5.632-6.144 14.848-0.512 20.48s14.848 6.144 20.48 0.512l12.8-11.776 0.512-0.512c17.408-18.432 45.056-20.48 61.952-4.608 16.896 15.872 15.872 43.52-1.536 61.952l-104.448 107.52c-5.632 5.632-5.632 14.848 0.512 20.48 5.632 5.632 14.848 5.632 20.48-0.512l104.448-107.52c28.672-29.696 28.672-76.288 0.512-102.912-13.312-12.8-30.208-18.944-47.616-18.944z m80.896 79.36c-18.944 0-37.888 7.68-52.224 22.016l-110.08 111.104c-5.632 5.632-5.632 14.848 0 20.48s14.848 5.632 20.48 0l110.08-111.104c16.896-16.896 42.496-18.432 57.856-3.072 7.168 7.168 11.264 16.896 10.752 27.648-0.512 11.264-5.12 22.016-13.312 30.208-5.632 5.632-5.632 14.848 0 20.48s14.848 5.632 20.48 0c13.312-13.312 20.992-31.232 21.504-49.664 0.512-18.944-6.144-36.352-19.456-49.152-12.288-12.8-29.184-18.944-46.08-18.944z m33.792 107.008c-0.512 0-0.512 0-0.512 0.512l-108.544 109.568c-0.512 0.512-0.512 1.024 0 1.536s1.024 0.512 1.536 0L757.76 209.92c0.512-0.512 0.512-1.024 0-1.536h-1.024z"  horiz-adv-x="1024" />

    
    <glyph glyph-name="groupbuy" unicode="&#59133;" d="M877.331569 597.2467790000001a51.510164 51.510164 0 0 1-14.944364 36.464493 51.448766 51.448766 0 0 1-36.336579 15.210423h-128.657219c-5.364171 100.710726-86.196151 180.860161-185.393407 180.860161s-180.029236-80.149435-185.393407-180.860161h-115.837239a51.448766 51.448766 0 0 1-36.336579-15.210423 51.509141 51.509141 0 0 1-14.944364-36.464493l-38.460964-607.354742a51.513234 51.513234 0 0 1 14.944364-36.464493 51.448766 51.448766 0 0 1 36.33658-15.210423h679.382195a51.448766 51.448766 0 0 1 36.33658 15.210423 51.509141 51.509141 0 0 1 14.944363 36.464493l-25.63996 607.354742z m-365.331569 173.764555c68.712965-0.997724 123.617435-57.522088 122.656551-126.274961l-245.494227-1.63729v1.63729a124.585483 124.585483 0 0 0 35.265178 88.609107 124.43915 124.43915 0 0 0 87.572498 37.665854z m300.048727-791.490505h-587.367525a45.445028 45.445028 0 0 0-32.146141 13.323447 45.49824 45.49824 0 0 0-13.31526 32.16456l34.005488 523.657504c0 25.122167 20.35356 45.488007 45.462425 45.488007h518.265704c25.107841 0 45.462424-20.36584 45.462424-45.488007l35.096333-523.384281a45.505403 45.505403 0 0 0-13.250792-32.282241 45.450145 45.450145 0 0 0-32.210609-13.387915v-0.091074zM421.151899 412.04473c-0.010233 14.682397-11.651364 26.755364-26.416649 27.395953v39.632649c0 15.192004-12.396331 27.508517-27.68862 27.508518s-27.688619-12.31549-27.688619-27.508518v-39.543621h-36.545334c-15.292288 0-27.688619-12.31549-27.688619-27.508517 0-15.192004 12.396331-27.508517 27.688619-27.508518h36.501332v-83.830267l-49.353035-49.208748c-7.930623-6.706749-11.397584-17.269315-8.972348-27.331485 2.426259-10.06217 10.333346-17.918092 20.46203-20.327978 10.127661-2.409886 20.760836 1.035586 27.510564 8.91402l10.218736 10.151198v-67.870784a26.048259 26.048259 0 0 0-9.881045-20.436448 26.415626 26.415626 0 0 0-22.246676-5.054109l-3.52529 0.797155c-14.598486 2.644223-28.703739-6.605442-31.991622-20.98187-3.288906-14.376429 5.405103-28.774347 19.721157-32.658817l3.52529-0.798179a82.606393 82.606393 0 0 1 18.295691-2.039449c45.043892 0.121773 81.501222 36.421514 81.525782 81.171717v123.063827l10.351766 10.28525c5.191232 5.154393 8.107655 12.147668 8.107655 19.439748s-2.916423 14.284331-8.107655 19.439748a27.119661 27.119661 0 0 1-10.351766 6.294357v50.937112c14.885012 0.576121 26.631544 12.774955 26.548656 27.576056z m304.371172-42.509163c15.263635 0 27.637454 12.322653 27.637454 27.522843 0 15.20019-12.373819 27.52182-27.637454 27.521821h-54.78679l20.176528 44.887326c5.601578 13.729699-0.710175 29.411867-14.283308 35.488259-13.573133 6.077416-29.540803 0.37146-36.137035-12.913101l-20.577664-45.50745a27.2619 27.2619 0 0 1 0-22.177092h-66.678632a27.307949 27.307949 0 0 1 0 26.613124l-23.517623 42.092678c-4.54348 9.020444-13.68365 14.83794-23.812335 15.157211-10.128685 0.319272-19.618826-4.91187-24.726148-13.628392a27.400047 27.400047 0 0 1 0.254803-28.14092l23.472598-42.047652h-51.534724c-15.263635 0-27.638477-12.32163-27.638477-27.52182s12.373819-27.52182 27.638477-27.52182h41.957601c0-28.653597-0.845251-61.121056-3.65218-93.499488h-44.541449c-15.264659 0-27.638477-12.322653-27.638477-27.522843 0-15.20019 12.373819-27.52182 27.638477-27.521821h37.949311c-8.239662-50.830689-21.824051-94.386694-42.892903-111.152542-11.146874-9.704013-12.643971-26.427906-3.396353-37.942147 9.247618-11.514241 25.960255-13.734816 37.915541-5.03876 35.900651 28.608571 54.606689 90.970898 64.228837 154.133449h91.977831v-132.666532c0-15.20019 12.373819-27.522844 27.638477-27.522843s27.638477 12.322653 27.638477 27.522843V221.08249h31.179117c15.264659 0 27.638477 12.322653 27.638477 27.522844s-12.373819 27.522844-27.638477 27.522843h-31.179117v93.408413h37.414121l-0.086981-0.001023z m-91.335194-94.190219h-85.848227c3.035126 37.158295 3.615341 70.967308 3.481287 94.146217h82.410942v-94.146217h-0.044002z"  horiz-adv-x="1024" />

    
    <glyph glyph-name="xiaoshoufenxi" unicode="&#58880;" d="M26.013286-124.813939h-1.354076c-0.238955 0-0.398258 0.159303-0.398258 0.398258v8.36341c0 0.238955 0.159303 0.398258 0.398258 0.398257h11.868077c0.238955 0 0.398258-0.159303 0.398257-0.398257v-1.194773c0-0.238955-0.159303-0.398258-0.398257-0.398258s-0.398258 0.159303-0.398258 0.398258v0.796515h-11.151213v-7.646546h0.955818c0.238955 0 0.398258-0.159303 0.398258-0.398258 0.079652-0.159303-0.079652-0.318606-0.318606-0.318606zM32.305756-128c-0.079652 0-0.159303 0-0.238955 0.079652l-1.752333 1.752333h-4.062228c-0.238955 0-0.398258 0.159303-0.398257 0.398258v8.204107c0 0.238955 0.159303 0.398258 0.398257 0.398257h12.107032c0.238955 0 0.398258-0.159303 0.398258-0.398257v-8.204107c0-0.238955-0.159303-0.398258-0.398258-0.398258h-3.982576l-1.752334-1.752333c-0.159303 0-0.238955-0.079652-0.318606-0.079652z m-5.73491 2.6285h3.823273c0.079652 0 0.159303 0 0.238955-0.079651l1.593031-1.593031 1.59303 1.593031c0.079652 0.079652 0.159303 0.079652 0.238955 0.079651H37.881363v7.487244h-11.310517v-7.487244zM28.402831-121.946484c0-0.398258 0.318606-0.716864 0.716864-0.716864s0.716864 0.318606 0.716864 0.716864-0.318606 0.716864-0.716864 0.716864-0.716864-0.318606-0.716864-0.716864zM31.588892-121.946484c0-0.398258 0.318606-0.716864 0.716864-0.716864s0.716864 0.318606 0.716864 0.716864-0.318606 0.716864-0.716864 0.716864-0.716864-0.318606-0.716864-0.716864zM34.774953-121.946484c0-0.398258 0.318606-0.716864 0.716864-0.716864s0.716864 0.318606 0.716864 0.716864-0.318606 0.716864-0.716864 0.716864-0.716864-0.318606-0.716864-0.716864zM96.026976 163.285625h713.67766v-29.152458H96.026976v29.152458zM715.476882 842.235221c-23.4972 0-42.613566-19.036714-42.613565-42.613566 0-9.239577 2.947106-17.76229 7.965152-24.771624l-119.875544-157.710019c-5.73491 2.867455-12.186683 4.460485-19.036715 4.460486-12.584941 0-23.895457-5.416304-31.621655-14.09832l-107.051649 87.616677c0.159303 1.354076 0.238955 2.787803 0.238955 4.221531 0 23.4972-19.036714 42.613566-42.613566 42.613565-23.4972 0-42.613566-19.036714-42.613566-42.613565 0-2.708152 0.238955-5.336652 0.716864-7.885501L208.176322 580.659614c-7.248289 5.814561-16.487866 9.239577-26.444306 9.239577-23.4972 0-42.613566-19.036714-42.613565-42.613566 0-23.4972 19.036714-42.613566 42.613565-42.613565s42.613566 19.036714 42.613566 42.613565c0 5.018046-0.876167 9.797138-2.469197 14.257623l108.326073 108.326074c7.726198-8.044804 18.638457-13.06285 30.745488-13.06285 13.461108 0 25.408836 6.212819 33.214686 15.930305l105.856876-86.660859c-0.398258-2.309894-0.557561-4.619788-0.55756-7.009334 0-23.4972 19.036714-42.613566 42.613565-42.613566 23.4972 0 42.613566 19.036714 42.613566 42.613566 0 8.204107-2.309894 15.930305-6.372122 22.46173l120.751711 158.984443c5.097698-2.150591 10.673304-3.345364 16.567517-3.345364 23.4972 0 42.613566 19.036714 42.613566 42.613565s-19.275669 42.454263-42.772869 42.454263zM224.584536 143.850653h-34.011201c-9.080274 0-16.487866 7.407592-16.487865 16.487866V350.54636c0 9.080274 7.407592 16.487866 16.487865 16.487865h34.011201c9.080274 0 16.487866-7.407592 16.487866-16.487865v-190.207841c-0.079652-9.080274-7.487243-16.487866-16.487866-16.487866zM379.347449 143.850653h-24.054761c-11.788426 0-21.42626 9.637834-21.42626 21.426261V499.97262c0 11.788426 9.637834 21.42626 21.42626 21.42626h24.054761c11.788426 0 21.42626-9.637834 21.42626-21.42626v-334.695706c0.079652-11.788426-9.637834-21.42626-21.42626-21.426261zM564.059334 143.850653h-30.82514c-9.956441 0-18.080896 8.124456-18.080896 18.080896V393.876789c0 9.956441 8.124456 18.080896 18.080896 18.080896h30.82514c9.956441 0 18.080896-8.124456 18.080896-18.080896v-231.94524c0-9.956441-8.124456-18.080896-18.080896-18.080896zM721.132141 143.850653h-25.966397c-11.310516 0-20.550093 9.239577-20.550094 20.550094V469.14748c0 11.310516 9.239577 20.550093 20.550094 20.550093h25.966397c11.310516 0 20.550093-9.239577 20.550093-20.550093v-304.746733c-0.079652-11.310516-9.319228-20.550093-20.550093-20.550094z"  horiz-adv-x="1024" />

    
    <glyph glyph-name="tixian" unicode="&#58974;" d="M1251.5584 485.57568l-37.94944 40.64768L1080.88832 384l132.72064-142.21824 37.94944 40.64768-68.23936 73.12384h238.8992V412.45184h-238.8992zM910.2336 384.01536m-56.90368 0a56.90368 56.90368 0 1 1 113.80736 0 56.90368 56.90368 0 1 1-113.80736 0ZM1308.45184 896H113.77664C50.93888 896 0 845.06112 0 782.22336v-796.4416C0-77.06112 50.93888-128 113.77664-128h1194.66496c62.83264 0 113.78176 50.93888 113.78176 113.78176v170.67008h-497.78176c-102.10816 0-184.88832 82.76992-184.88832 184.87808V426.66496c0 102.11328 82.78016 184.88832 184.89856 184.88832h497.77152V782.22336C1422.21824 845.06112 1371.27936 896 1308.45184 896z"  horiz-adv-x="1422" />

    
    <glyph glyph-name="Shape" unicode="&#58961;" d="M783.449043 726.060522c-14.024348 12.377043-79.916522-32.946087-41.182608-72.481392 201.817043-171.364174 205.111652-331.998609 0-508.304695-30.497391-28.805565 10.685217-84.012522 41.182608-72.481392 279.28487 130.181565 267.753739 532.168348 0 653.267479zM732.382609 239.215304c101.331478 82.365217 94.742261 239.705043 0 310.583653-37.086609 22.26087-60.994783-51.912348-60.994783-51.912348s94.742261-119.451826 0-206.803479c-18.921739-24.709565 16.473043-74.930087 60.994783-51.867826z m-182.895305-266.106434c0-106.273391-81.563826-51.912348-81.563826-51.912348l-352.612174 296.603826H60.994783c-33.836522 0-60.994783 28.004174-60.994783 62.597565V529.14087c0 34.593391 27.158261 61.796174 60.994783 61.796173H125.996522L467.968 881.753043s81.519304 55.206957 81.519304-51.912347V-26.935652z"  horiz-adv-x="1024" />

    
    <glyph glyph-name="youhuiquan" unicode="&#59026;" d="M887.466667 315.733333v-204.8a34.133333 34.133333 0 0 0-34.133334-34.133333H170.666667a34.133333 34.133333 0 0 0-34.133334 34.133333v204.8a68.266667 68.266667 0 1 1 0 136.533334V657.066667a34.133333 34.133333 0 0 0 34.133334 34.133333h682.666666a34.133333 34.133333 0 0 0 34.133334-34.133333v-204.8a68.266667 68.266667 0 1 1 0-136.533334z m-68.266667-34.133333c-30.856533 17.066667-68.266667 42.9056-68.266667 102.4s37.410133 85.333333 68.266667 102.4V622.933333H204.8v-136.533333c34.133333-17.066667 68.266667-46.557867 68.266667-102.4s-34.133333-85.333333-68.266667-102.4v-136.533333h614.4v136.533333z m-443.733333 238.933333h68.266666v-273.066666h-68.266666v273.066666z"  horiz-adv-x="1024" />

    
    <glyph glyph-name="xinlingshouyewuicon-" unicode="&#58951;" d="M80 19.2h252.8V425.6l-70.4 48-182.4-156.8v-297.6z m310.4 0h252.8V422.4L521.6 320l-131.2 70.4v-371.2zM704 470.4v-451.2h252.8v448L848 608 704 470.4z m0 0M121.6 428.8L259.2 544l262.4-160L832 678.4l3.2 3.2 51.2-54.4L969.6 864l-243.2-76.8 57.6-57.6-3.2-3.2-272-256-256 156.8L76.8 480c-16-12.8-16-32-3.2-48 12.8-12.8 32-16 48-3.2z m828.8-457.6H80c-19.2 0-35.2-16-35.2-35.2 0-19.2 16-35.2 35.2-35.2h870.4c19.2 0 35.2 16 35.2 35.2-3.2 22.4-16 35.2-35.2 35.2z m0 0"  horiz-adv-x="1024" />

    
    <glyph glyph-name="naozhong" unicode="&#58882;" d="M772.722 16.923999999999978C700.018-39.452 613.148-68.779 512-71.11099999999999c-101.376 2.33244-188.444 31.8009-261.234 88.4338L209.636-56.20600000000002a28.4444 28.4444 0 0 0-49.6356 27.7902l47.3316 84.5369C128.74 135.96400000000005 88.0924 235.77599999999995 85.3333 355.55600000000004c2.78756 121.116 44.3164 221.81 124.587 302.08C290.19 737.906 390.884 779.435 512 782.222c121.116-2.78756 221.81-44.3164 302.08-124.587C894.35 577.365 935.879 476.672 938.667 355.55600000000004c-2.75911-120.036-43.5484-219.989-122.425-299.918l46.8764-83.7404a28.4444 28.4444 0 0 0-49.6356-27.7902l-40.7609 72.8178Zm1.13778 76.8c69.7458 69.6889 105.472 156.388 107.947 260.551-2.47467 106.724-38.2009 193.422-107.947 263.111-69.7458 69.7742-156.444 105.529-260.551 107.975-106.752-2.47467-193.422-38.2009-263.168-107.947-69.7458-69.7458-105.472-156.444-107.947-260.551 2.47467-106.752 38.2009-193.422 107.947-263.168 69.4613-69.4613 155.733-105.188 261.86-107.89 106.126 2.70222 192.398 38.4284 261.86 107.89ZM155.477 677.092a28.4444 28.4444 0 1 0-45.7956 33.792 532.565 532.565 0 0 0 107.804 108.373A28.4444 28.4444 0 0 0 251.819 773.973c-37.5751-28.4444-69.6889-60.7004-96.3413-96.8249Zm714.78 0a475.705 475.705 0 0 1-96.3413 96.8249 28.4444 28.4444 0 0 0 34.3324 45.3404 532.565 532.565 0 0 0 107.776-108.373 28.4444 28.4444 0 0 0-45.7671-33.792Zm-341.049-333.284h188.814a28.4444 28.4444 0 0 0 0-56.8889h-217.259a28.4444 28.4444 0 0 0-28.4444 28.4444v242.318a28.4444 28.4444 0 1 0 56.8889 0v-213.874Z"  horiz-adv-x="1024" />

    
    <glyph glyph-name="ziliao" unicode="&#58912;" d="M83.5 567.9l415.3-226.3c4.2-2.3 8.8-3.4 13.4-3.4 4.5 0 9.1 1.1 13.3 3.4l419.7 226.3c9.2 4.9 14.8 14.5 14.7 25-0.1 10.4-6 19.9-15.3 24.6l-415.3 211c-7.9 4-17.3 4-25.3 0L84.4 617.4c-9.3-4.7-15.3-14.1-15.4-24.6-0.2-10.3 5.4-20 14.5-24.9z m433 210.3l361.1-186.5-365.3-199.8-361.1 199.6 365.3 186.7zM939.8 411.7l-83 42.2-53.9-32.3 69.9-35.5-365.3-199.9-361.1 199.6 74.5 37.5-53.7 32.6-87.7-44.1c-9.3-4.7-15.3-14.1-15.4-24.5-0.2-10.4 5.5-20.1 14.6-25L494 135.9c4.2-2.3 8.8-3.4 13.4-3.4 4.5 0 9.1 1.1 13.3 3.4l419.7 226.3c9.2 4.9 14.8 14.6 14.7 25-0.2 10.3-6.1 19.8-15.3 24.5zM939.8 215.8l-78.7 38.7-11.2-32.3 22.9-32-365.3-199.9-361.1 199.5 26.6 31.4-11 32.6-82.5-38c-9.3-4.7-15.3-14.1-15.4-24.5-0.2-10.4 5.5-20.1 14.6-25.1L494-60.1c4.2-2.3 8.8-3.4 13.4-3.4 4.5 0 9.1 1.1 13.3 3.4l419.7 226.3c9.2 4.9 14.8 14.5 14.7 25-0.2 10.4-6.1 19.8-15.3 24.6z"  horiz-adv-x="1024" />

    
    <glyph glyph-name="miaosha" unicode="&#58917;" d="M504.789282 879.418247C226.597303 879.418247 1.081658 653.899602 1.081658 375.708623c0-278.191978 225.517645-503.708623 503.708623-503.708623s503.709623 225.517645 503.709623 503.708623c0 278.191978-225.518644 503.709623-503.709623 503.709624z m0-967.121997c-255.93602 0-463.412373 207.476353-463.412374 463.413373 0 255.935021 207.476353 463.411374 463.413373 463.411374s463.411374-207.476353 463.411374-463.412374c0-255.93602-207.476353-463.412373-463.412373-463.412373zM401.826859-6.297507L497.464599 330.20902l-186.457004 0.09497 218.680808 429.747025-57.671752-323.775555 222.807502 0.207934zM504.789282 879.545206c-277.893073 0-503.170794-225.276721-503.170794-503.169794 0-277.895072 225.277721-503.170794 503.170794-503.170793 277.894073 0 503.170794 225.275721 503.170793 503.170793 0 277.893073-225.276721 503.170794-503.170793 503.170794z m0-953.810208c-248.881252 0-450.639415 201.756163-450.639415 450.640414 0 248.881252 201.758162 450.639415 450.639415 450.639415 248.883252 0 450.638415-201.758162 450.638415-450.639415 0-248.883252-201.756163-450.640415-450.637416-450.640414z"  horiz-adv-x="1024" />

    
    <glyph glyph-name="cangku" unicode="&#58955;" d="M962.398316 357.052632a33.953684 33.953684 0 0 0-24.522105 10.509473L512 809.391158 86.123789 367.562105a33.792 33.792 0 0 0-49.04421 0 36.756211 36.756211 0 0 0 0 50.661053L487.477895 885.490526A34.061474 34.061474 0 0 0 512 896c9.162105 0 18.054737-3.772632 24.522105-10.509474l450.398316-467.267368c13.527579-14.012632 13.473684-36.702316 0-50.661053a33.953684 33.953684 0 0 0-24.522105-10.509473zM854.986105-128H169.013895C150.096842-128 134.736842-111.292632 134.736842-90.597053v410.246737c0 20.641684 15.36 37.402947 34.277053 37.402948 18.970947 0 34.330947-16.707368 34.330947-37.402948v-372.843789h617.310316v372.843789c0 20.641684 15.36 37.402947 34.330947 37.402948 18.917053 0 34.277053-16.707368 34.277053-37.402948v-410.246737c0-20.641684-15.36-37.402947-34.277053-37.402947zM446.464 311.026526H351.770947A55.727158 55.727158 0 0 0 296.421053 366.969263V462.740211C296.421053 493.621895 321.212632 518.736842 351.770947 518.736842h94.693053c30.504421 0 55.349895-25.114947 55.349895-55.996631v-95.770948c0-30.827789-24.791579-55.942737-55.349895-55.942737z m-84.506947 66.290527h74.320842V452.446316H361.957053v-75.129263zM446.464 33.684211H351.770947A55.727158 55.727158 0 0 0 296.421053 89.680842v95.770947c0 30.827789 24.791579 55.942737 55.349894 55.942737h94.693053c30.504421 0 55.349895-25.114947 55.349895-55.942737v-95.770947c0-30.881684-24.791579-55.996632-55.349895-55.996631z m-84.506947 66.290526h74.320842v75.129263H361.957053v-75.129263zM726.123789 33.684211h-94.693052a55.727158 55.727158 0 0 0-55.349895 55.996631v95.770947c0 30.827789 24.791579 55.942737 55.349895 55.942737h94.693052c30.504421 0 55.349895-25.114947 55.349895-55.942737v-95.770947c0-30.881684-24.791579-55.996632-55.349895-55.996631z m-84.506947 66.290526h74.320842v75.129263h-74.320842v-75.129263z"  horiz-adv-x="1024" />

    
    <glyph glyph-name="community" unicode="&#58883;" d="M456.191439 852.92613c-33.284354-21.536935-74.40032-68.526611-93.979353-105.726771-27.410644-58.737095-41.115967-68.526611-99.853061-68.526611-105.726771 0-203.62193-103.768868-203.62193-215.369349 0-45.031773 9.789516-97.895158 21.536935-119.432093 15.663225-31.326451 9.789516-50.905482-31.326451-99.853062C3.915806 191.154859-1.957903 169.617924 3.915806 63.891153c5.87371-113.558384 7.831613-119.432093 60.694999-125.305803 29.368548-3.915806 52.863386-17.621129 52.863385-35.242257 0-43.07387 994.61481-41.115967 1010.278036 1.957903 7.831613 15.663225 33.284354 29.368548 58.737095 29.368548 45.031773 0 46.989676 5.87371 46.989676 133.137415 0 115.516287-5.87371 140.969028-46.989676 178.169189-45.031773 43.07387-45.031773 48.947579-19.579032 111.60048 35.242257 84.189836 35.242257 113.558384-3.915806 195.790317C1125.794323 629.725169 1047.478196 678.672748 963.28836 678.672748c-45.031773 0-62.652901 13.705322-88.105643 68.526611C808.614009 888.168387 595.202564 941.031773 456.191439 852.92613z m289.769669-113.558384c37.20016-37.20016 56.779192-78.316127 56.779192-115.516287 0-66.568708-64.610805-156.632254-131.179513-182.084994-109.642578-41.115967-260.401122 95.937255-231.032574 211.453542C475.77047 796.146938 642.19224 843.136614 745.961108 739.367746z m-383.749022-244.737896l43.07387-74.40032-46.989676-46.989676c-56.779192-56.779192-111.600481-58.737095-162.505963-7.831613s-48.947579 113.558384 3.915806 170.337576c58.737095 62.652901 111.600481 48.947579 162.505963-41.115967z m675.476594 50.905483c52.863386-43.07387 56.779192-127.263706 9.789516-180.127092s-111.600481-48.947579-164.463866 7.831613l-43.07387 46.989676 39.158063 80.27403c46.989676 90.063546 90.063546 101.810965 158.590157 45.031773zM677.434497 336.039693c74.40032 9.789516 86.147739 5.87371 142.926931-58.737095 46.989676-52.863386 60.694998-88.105643 60.694998-146.842737 0-64.610805-5.87371-78.316127-39.158063-78.316127-31.326451 0-39.158063 13.705322-39.158063 58.737095 0 39.158063-9.789516 58.737095-29.368548 58.737095-21.536935 0-29.368548-23.494838-29.368547-97.895159v-97.895158h-232.990478l-5.873709 93.979352c-3.915806 66.568708-13.705322 92.021449-35.242257 92.021449-17.621129 0-31.326451-21.536935-35.242257-54.821289-3.915806-37.20016-17.621129-52.863386-45.031773-52.863385-29.368548 0-37.20016 13.705322-37.20016 60.694998 0 70.484514 25.452741 125.305803 92.021449 197.74822 43.07387 45.031773 56.779192 48.947579 101.810964 33.284354 27.410644-11.747419 86.147739-15.663225 131.179513-7.831613z m-418.991279-234.94838c3.915806-92.021449 0-127.263706-17.621128-127.263706-15.663225 0-25.452741 23.494838-25.452741 56.779192 0 56.779192-41.115967 111.600481-64.610805 86.147739-7.831613-5.87371-13.705322-29.368548-13.705322-48.947579s-7.831613-35.242257-19.579032-35.242257c-35.242257 0-21.536935 90.063546 21.536935 144.884835C160.54806 204.860181 195.790317 228.355019 215.369349 228.355019c31.326451 0 37.20016-19.579032 43.073869-127.263706z m857.561589 64.610805c21.536935-35.242257 39.158063-80.27403 39.158063-97.895159 0-48.947579-54.821289-43.07387-62.652901 3.915806-9.789516 68.526611-45.031773 52.863386-50.905483-23.494838-11.747419-129.221609-52.863386-88.105643-54.821288 52.863386 0 121.389997 1.957903 127.263706 45.031773 127.263706 31.326451 0 58.737095-21.536935 84.189836-62.652901z"  horiz-adv-x="1240" />

    
    <glyph glyph-name="huangou1" unicode="&#58948;" d="M898.048 357.376l-295.936 295.424c-3.584 3.584-6.656 7.168-9.216 10.24-15.36 17.408-28.16 30.72-57.344 30.72H235.008c-36.352 0-65.536-29.184-65.536-65.536V327.68c0-30.208 15.36-45.056 32.256-61.44l7.168-7.168 295.936-295.936c22.528-22.528 52.224-33.792 81.92-33.792 29.696 0 59.392 11.264 81.92 33.792l230.4 229.888c44.032 45.568 44.032 118.784-1.024 164.352z m-31.744-131.584l-230.4-229.888c-27.648-27.136-72.192-27.136-99.328 0L240.64 291.84l-7.168 7.168c-15.36 14.848-18.432 18.944-18.432 29.184V628.224c0 11.264 9.216 19.968 20.48 19.968h300.544c9.216 0 9.216 0 24.064-15.36 3.072-3.072 6.656-7.168 10.24-11.264l296.448-296.448c26.624-27.648 26.624-71.68-0.512-99.328zM491.008 534.016c-22.016 22.016-50.688 33.792-81.92 34.304-30.72 0-59.904-11.776-81.92-33.792s-33.792-50.688-34.304-81.92c0-30.72 11.776-59.392 33.792-81.408l1.024-1.024c22.016-22.016 50.688-33.792 80.896-33.792 30.72 0 59.392 11.776 81.408 33.792 46.08 45.568 46.08 118.272 1.024 163.84z m-31.744-131.584c-13.312-13.312-31.232-20.48-49.664-20.48-18.944 0-36.352 7.168-49.664 20.48l-0.512 0.512c-13.312 13.312-20.48 30.72-20.48 49.664s7.168 36.352 20.48 49.664 30.72 20.48 49.664 20.48 36.352-7.168 49.664-20.48c27.648-27.648 27.648-72.192 0.512-99.84z"  horiz-adv-x="1024" />

    
    <glyph glyph-name="dianpu" unicode="&#59050;" d="M800 384c-17.92 0-32-14.08-32-32v-320c0-17.92-14.08-32-32-32H640v224c0 17.92-14.08 32-32 32h-256c-17.92 0-32-14.08-32-32V0H224c-17.92 0-32 14.08-32 32v320c0 17.92-14.08 32-32 32s-32-14.08-32-32v-320c0-53.12 42.88-96 96-96h512c53.12 0 96 42.88 96 96v320c0 17.92-14.08 32-32 32zM576 0H384v192h192v-192z m317.44 588.16l-64 160A31.296 31.296 0 0 1 800 768h-640c-12.8 0-24.96-7.68-29.44-19.84l-64-160C64.64 584.32 64 579.84 64 576c0-70.4 57.6-128 128-128 38.4 0 72.32 16.64 96 43.52 23.68-26.88 57.6-43.52 96-43.52s72.32 16.64 96 43.52c23.68-26.88 57.6-43.52 96-43.52s72.32 16.64 96 43.52c23.68-26.88 57.6-43.52 96-43.52 70.4 0 128 57.6 128 128 0 3.84-0.64 8.32-2.56 12.16zM768 512c-35.2 0-64 28.8-64 64 0 17.92-14.08 32-32 32s-32-14.08-32-32c0-35.2-28.8-64-64-64s-64 28.8-64 64c0 17.92-14.08 32-32 32S448 593.92 448 576c0-35.2-28.8-64-64-64s-64 28.8-64 64c0 17.92-14.08 32-32 32S256 593.92 256 576c0-35.2-28.8-64-64-64-33.28 0-60.8 25.6-64 58.24L181.76 704h596.48L832 570.24c-3.2-32.64-30.72-58.24-64-58.24z"  horiz-adv-x="1024" />

    


  </font>
</defs>
</svg>
